<svg width="36" height="36" viewBox="0 0 36 36" fill="none" xmlns="http://www.w3.org/2000/svg">
<path d="M18.0821 0.000274658L18.0258 0C10.6452 0 4.64066 6.00512 4.64066 13.3865C4.64066 17.4333 6.70911 20.5897 9.01376 23.7329L18.008 35.9999C18.008 35.9999 26.5092 24.4583 27.0409 23.7332C29.3456 20.59 31.414 17.4336 31.414 13.3868C31.414 6.02352 25.4388 0.0293884 18.0821 0.000274658ZM25.3402 22.4859C24.8079 23.2121 19.2228 30.8616 18.0349 32.47L10.7144 22.4859C8.54519 19.5273 6.74975 16.8005 6.74975 13.3865C6.74975 7.18559 11.7796 2.13739 17.9734 2.1091H18.0275C24.246 2.1091 29.3052 7.16829 29.3052 13.3868C29.3052 16.8008 27.5095 19.5273 25.3402 22.4859Z" fill="black"/>
<path d="M18.0275 5.65875C13.7662 5.65875 10.2997 9.12549 10.2997 13.3865C10.2997 17.6479 13.7662 21.1146 18.0275 21.1146C22.2885 21.1146 25.7553 17.6479 25.7553 13.3865C25.7553 9.12549 22.2885 5.65875 18.0275 5.65875ZM18.0275 19.0055C14.9291 19.0055 12.4085 16.485 12.4085 13.3865C12.4085 10.2884 14.9291 7.76785 18.0275 7.76785C21.1256 7.76785 23.6464 10.2884 23.6464 13.3865C23.6464 16.485 21.1256 19.0055 18.0275 19.0055Z" fill="black"/>
</svg>
