<svg width="36" height="36" viewBox="0 0 36 36" fill="none" xmlns="http://www.w3.org/2000/svg">
<g clip-path="url(#clip0)">
<path d="M32.625 4.5H3.37502C1.51392 4.5 -9.53674e-07 6.01392 -9.53674e-07 7.87502V28.125C-9.53674e-07 29.9861 1.51392 31.5 3.37502 31.5H32.625C34.4861 31.5 36 29.9861 36 28.125V7.87502C36 6.01392 34.4861 4.5 32.625 4.5ZM32.625 6.74999C32.7778 6.74999 32.9232 6.7817 33.0562 6.83709L18 19.8864L2.94375 6.83709C3.07669 6.78178 3.2221 6.74999 3.37495 6.74999H32.625ZM32.625 29.25H3.37502C2.7543 29.25 2.24999 28.7457 2.24999 28.1249V9.21423L17.2628 22.2253C17.4749 22.4088 17.7374 22.5 18 22.5C18.2626 22.5 18.5251 22.4088 18.7372 22.2253L33.75 9.21423V28.125C33.7499 28.7457 33.2457 29.25 32.625 29.25Z" fill="black"/>
</g>
<defs>
<clipPath id="clip0">
<rect width="36" height="36" fill="white"/>
</clipPath>
</defs>
</svg>
