<svg width="36" height="36" viewBox="0 0 36 36" fill="none" xmlns="http://www.w3.org/2000/svg">
<g clip-path="url(#clip0)">
<path d="M25.8735 36C24.7114 36 23.5592 35.7946 22.4325 35.3852C17.4688 33.5821 12.8614 30.6452 9.10825 26.8922C5.35512 23.1391 2.41828 18.5316 0.615194 13.5679C0.0357721 11.9727 -0.135221 10.3261 0.107136 8.67354C0.334166 7.1256 0.933767 5.62287 1.84118 4.32777C2.75261 3.02697 3.9677 1.94505 5.35505 1.19899C6.8345 0.403437 8.4493 0 10.1547 0C10.6852 0 11.1436 0.370602 11.2547 0.889206L13.0205 9.12942C13.1004 9.50255 12.9858 9.89081 12.716 10.1607L9.69878 13.1778C12.5451 18.8367 17.1635 23.4552 22.8225 26.3015L25.8396 23.2843C26.1095 23.0145 26.4978 22.9 26.8708 22.9798L35.1111 24.7455C35.6297 24.8567 36.0003 25.3151 36.0003 25.8455C36.0003 27.551 35.5968 29.1658 34.8012 30.6453C34.0552 32.0326 32.9732 33.2477 31.6724 34.1592C30.3774 35.0666 28.8747 35.6662 27.3267 35.8932C26.8416 35.9644 26.3566 35.9999 25.8735 36ZM9.2559 2.29912C7.00634 2.54746 5.00969 3.72655 3.68379 5.61893C2.1928 7.74685 1.84512 10.3641 2.7299 12.7998C6.19644 22.3426 13.6578 29.804 23.2006 33.2705C25.6362 34.1553 28.2535 33.8077 30.3815 32.3166C32.2739 30.9907 33.453 28.9941 33.7013 26.7445L26.9979 25.3081L23.8469 28.4591C23.5116 28.7944 23.0021 28.8835 22.5731 28.6818C15.8803 25.5376 10.4628 20.1201 7.31858 13.4273C7.11701 12.9982 7.20602 12.4887 7.54133 12.1535L10.6923 9.00251L9.2559 2.29912Z" fill="black"/>
</g>
<defs>
<clipPath id="clip0">
<rect width="36" height="36" fill="white"/>
</clipPath>
</defs>
</svg>
