<svg width="75" height="72" fill="none" xmlns="http://www.w3.org/2000/svg"><path d="M37.5 0C16.781 0 0 16.5 0 36.85c0 16.284 10.744 30.094 25.64 34.962 1.876.347 2.563-.793 2.563-1.771 0-.875-.031-3.194-.047-6.266-10.431 2.222-12.631-4.944-12.631-4.944-1.706-4.253-4.172-5.39-4.172-5.39-3.397-2.285.263-2.238.263-2.238C15.38 51.46 17.359 55 17.359 55c3.344 5.634 8.778 4.006 10.922 3.066.338-2.385 1.303-4.007 2.375-4.928-8.328-.922-17.081-4.091-17.081-18.21 0-4.022 1.453-7.31 3.86-9.887-.422-.932-1.688-4.678.328-9.754 0 0 3.14-.987 10.312 3.779 3-.82 6.188-1.225 9.375-1.244 3.188.019 6.375.425 9.375 1.244 7.125-4.766 10.266-3.778 10.266-3.778 2.015 5.075.75 8.821.375 9.753 2.39 2.578 3.843 5.865 3.843 9.887 0 14.156-8.765 17.272-17.109 18.178 1.313 1.106 2.531 3.366 2.531 6.819 0 4.931-.047 8.894-.047 10.09 0 .966.657 2.12 2.579 1.75C64.266 66.929 75 53.11 75 36.85 75 16.5 58.21 0 37.5 0z" fill="#1D1D1D"/></svg>