<svg width="75" height="75" fill="none" xmlns="http://www.w3.org/2000/svg"><path d="M37.5 0C16.79 0 0 16.79 0 37.5S16.79 75 37.5 75 75 58.21 75 37.5 58.21 0 37.5 0zM23.45 62.89H12.906V28.97h10.542v33.92zm-5.27-38.556a6.114 6.114 0 01-6.114-6.114 6.114 6.114 0 016.114-6.11c3.37 0 6.11 2.739 6.11 6.11a6.115 6.115 0 01-6.11 6.114zm44.753 38.555H52.4V46.394c0-3.934-.073-8.993-5.48-8.993-5.483 0-6.326 4.284-6.326 8.708v16.78H30.06V28.97h10.11v4.635h.143c1.407-2.667 4.845-5.478 9.974-5.478 10.675 0 12.645 7.025 12.645 16.158V62.89z" fill="#1D1D1D"/></svg>