<svg width="75" height="75" fill="none" xmlns="http://www.w3.org/2000/svg"><path d="M37.5 0C16.79 0 0 16.79 0 37.5S16.79 75 37.5 75 75 58.21 75 37.5 58.21 0 37.5 0zm19.022 41.556c1.748 1.707 3.597 3.314 5.166 5.197.695.833 1.35 1.695 1.85 2.664.711 1.382.068 2.897-1.169 2.98l-7.682-.002c-1.984.164-3.563-.636-4.895-1.993-1.062-1.08-2.048-2.236-3.072-3.353-.418-.46-.858-.891-1.383-1.231-1.048-.681-1.958-.473-2.558.621-.611 1.114-.75 2.347-.809 3.587-.084 1.811-.63 2.284-2.447 2.37-3.884.181-7.57-.408-10.995-2.366-3.021-1.727-5.36-4.165-7.398-6.924-3.968-5.38-7.007-11.285-9.738-17.36-.614-1.368-.165-2.1 1.345-2.128 2.507-.048 5.014-.042 7.522-.002 1.02.016 1.695.6 2.087 1.563 1.355 3.333 3.017 6.505 5.098 9.447.555.783 1.121 1.564 1.928 2.117.89.611 1.568.41 1.988-.584.268-.632.384-1.307.442-1.984.2-2.317.224-4.635-.122-6.943-.215-1.445-1.027-2.378-2.467-2.651-.734-.14-.626-.41-.27-.83.62-.724 1.2-1.172 2.359-1.172l8.68-.002c1.368.269 1.675.883 1.86 2.26l.008 9.647c-.016.533.268 2.114 1.226 2.463.767.253 1.273-.362 1.732-.848 2.082-2.209 3.565-4.816 4.893-7.515.586-1.19 1.092-2.421 1.583-3.655.365-.912.933-1.361 1.962-1.346l8.36.01c.245 0 .495.003.74.045 1.408.24 1.794.847 1.358 2.221-.686 2.16-2.018 3.958-3.321 5.76-1.397 1.931-2.886 3.794-4.268 5.733-1.271 1.772-1.17 2.665.407 4.204z" fill="#1D1D1D"/></svg>