<svg width="36" height="36" fill="none" xmlns="http://www.w3.org/2000/svg"><path d="M18.082 0h-.056C10.646 0 4.64 6.005 4.64 13.386c0 4.047 2.068 7.204 4.373 10.347L18.008 36s8.501-11.542 9.033-12.267c2.305-3.143 4.373-6.3 4.373-10.346C31.414 6.024 25.439.029 18.082 0zm7.258 22.486c-.532.726-6.117 8.376-7.305 9.984l-7.32-9.984c-2.17-2.959-3.965-5.686-3.965-9.1 0-6.2 5.03-11.249 11.223-11.277h.055c6.218 0 11.277 5.06 11.277 11.278 0 3.414-1.796 6.14-3.965 9.099z" fill="#000"/><path d="M18.027 5.659c-4.26 0-7.727 3.466-7.727 7.728 0 4.26 3.466 7.728 7.727 7.728s7.728-3.467 7.728-7.728c0-4.262-3.466-7.728-7.727-7.728zm0 13.347a5.625 5.625 0 01-5.619-5.62 5.625 5.625 0 015.62-5.618 5.625 5.625 0 015.618 5.619 5.625 5.625 0 01-5.619 5.619z" fill="#000"/></svg>