<svg width="36" height="36" fill="none" xmlns="http://www.w3.org/2000/svg"><g clip-path="url(#clip0)"><path d="M32.625 4.5H3.375A3.379 3.379 0 000 7.875v20.25A3.379 3.379 0 003.375 31.5h29.25A3.379 3.379 0 0036 28.125V7.875A3.379 3.379 0 0032.625 4.5zm0 2.25c.153 0 .298.032.431.087L18 19.887 2.944 6.836a1.12 1.12 0 01.431-.087h29.25zm0 22.5H3.375c-.62 0-1.125-.504-1.125-1.125V9.215l15.013 13.01a1.124 1.124 0 001.474 0L33.75 9.215v18.91c0 .62-.504 1.125-1.125 1.125z" fill="#000"/></g><defs><clipPath id="clip0"><path fill="#fff" d="M0 0h36v36H0z"/></clipPath></defs></svg>