<svg width="36" height="36" fill="none" xmlns="http://www.w3.org/2000/svg"><g clip-path="url(#clip0)"><path d="M25.873 36c-1.162 0-2.314-.205-3.44-.615a36.693 36.693 0 01-13.325-8.493A36.691 36.691 0 01.615 13.568a9.957 9.957 0 01-.508-4.894 10.198 10.198 0 011.734-4.346 10.234 10.234 0 013.514-3.129A10.024 10.024 0 0110.155 0c.53 0 .989.37 1.1.89l1.765 8.24c.08.373-.034.76-.304 1.03l-3.017 3.018A29.612 29.612 0 0022.823 26.3l3.017-3.017c.27-.27.658-.384 1.03-.304l8.241 1.765c.519.112.89.57.89 1.1 0 1.706-.404 3.32-1.2 4.8a10.235 10.235 0 01-3.129 3.514 10.191 10.191 0 01-4.345 1.734c-.485.071-.97.107-1.454.107zM9.256 2.3c-2.25.247-4.246 1.427-5.572 3.319-1.491 2.128-1.839 4.745-.954 7.18A34.122 34.122 0 0023.2 33.27c2.436.885 5.053.538 7.181-.953 1.893-1.326 3.072-3.323 3.32-5.573l-6.703-1.436-3.151 3.151a1.125 1.125 0 01-1.274.223A31.853 31.853 0 017.32 13.427a1.125 1.125 0 01.222-1.274l3.151-3.15-1.436-6.704z" fill="#000"/></g><defs><clipPath id="clip0"><path fill="#fff" d="M0 0h36v36H0z"/></clipPath></defs></svg>