<svg width="20" height="12" viewBox="0 0 20 12" fill="none" xmlns="http://www.w3.org/2000/svg">
<path d="M19.724 2.12536C20.1045 1.72586 20.0895 1.09236 19.6895 0.71186C19.2895 0.33086 18.6565 0.34686 18.2755 0.74636L11 8.41736C10 9.41736 10.5837 8.83265 10 9.41633C9.22113 8.63743 10 9.41741 9.00002 8.41741L9.00002 8.38536L1.72403 0.746359C1.34303 0.346359 0.710024 0.330859 0.310024 0.711859C0.104024 0.908359 2.47634e-05 1.17186 2.47518e-05 1.43586C2.4741e-05 1.68386 0.0915238 1.93186 0.276024 2.12536L8.58602 10.8499C8.96352 11.2279 9.46552 11.4359 10 11.4359C10.5345 11.4359 11.0365 11.2279 11.431 10.8324L19.724 2.12536Z" fill="#1D1D1D"/>
</svg>
